<?xml version="1.0" encoding="utf-8"?>
<!-- Generator: Adobe Illustrator 26.0.1, SVG Export Plug-In . SVG Version: 6.00 Build 0)  -->
<svg version="1.1" id="레이어_1" xmlns="http://www.w3.org/2000/svg" xmlns:xlink="http://www.w3.org/1999/xlink" x="0px"
	 y="0px" viewBox="0 0 1804.3 595.5" style="enable-background:new 0 0 1804.3 595.5;" xml:space="preserve">
<style type="text/css">
	.rocks{fill:#222323;}
</style>
<path class="rocks" d="M655.5,118.8c-30.9,59.1,7.3,116.7,88,117.2c80.6,0.5,181.5-67.1,137.7-142.4
	C837.4,18.3,686.8,58.6,655.5,118.8"/>
<path class="rocks" d="M1325.8,269.5c-97.6,30.3-116.1,125.6-26.4,204.1c89.8,78.5,274.9,107.3,306.1-11.6
	C1636.8,343.2,1425.1,238.8,1325.8,269.5"/>
<path class="rocks" d="M520.3,237.2c-73.3,37.7-122,117.2-96,168.3c26,51.1,131.4,49.1,197.4-51C687.6,254.3,594.8,198.9,520.3,237.2"
	/>
<path class="rocks" d="M375.3,380.6c-79.4-22-169.2,3.2-184.7,58.4c-15.6,55.2,63.2,125.3,179.6,96.5
	C486.6,506.6,456.1,403,375.3,380.6"/>
<path class="rocks" d="M991.1,133.9c-88.5,62.4-43.3,125-18,144.3c25.3,19.3,64.3,54.4,249.7,20.3c185.4-34.2,227.4-132.6,171.2-188.1
	C1337.8,54.9,1063.2,83,991.1,133.9"/>
<path class="rocks" d="M782.8,304.6c-71.6-21.8-133.2,24.8-151.3,45c-18.1,20.2-51.7,53.3-2,135.3c49.6,82,155.1,66.5,208.5,16.9
	C891.3,452.2,841.2,322.4,782.8,304.6"/>
<path class="rocks" d="M901.2,347.2c-62.5,50.5-48.6,151.4,12.6,174.1c61.2,22.7,253.2,55.5,314.4-60.6
	c61.2-116.1-52.9-144.7-167-148.9C947.7,307.7,922.2,332,901.2,347.2"/>
<path class="rocks" d="M474.9,452.2c-26.1,23-20.3,69,5.3,79.4C505.8,542,586,556.9,611.6,504c25.6-52.9-22.1-66-69.8-67.9
	C494.4,434.2,483.7,445.3,474.9,452.2"/>
</svg>
