<?xml version="1.0" encoding="utf-8"?>
<!-- Generator: Adobe Illustrator 26.0.1, SVG Export Plug-In . SVG Version: 6.00 Build 0)  -->
<svg version="1.1" id="레이어_1" xmlns="http://www.w3.org/2000/svg" xmlns:xlink="http://www.w3.org/1999/xlink" x="0px"
	 y="0px" viewBox="0 0 210.8 357.9" style="enable-background:new 0 0 210.8 357.9;" xml:space="preserve">
<style type="text/css">
	.st0{fill:#222323;}
</style>
<path class="st0" d="M210.8,194.2c0,22.6-1.2,43.8-4,62.9c-2.8,19.2-7.3,36.3-13.8,50.8s-15.1,26.3-26.2,34.8
	c-11.1,8.5-24.7,13.7-41.3,14.8c-21.3,1.5-39.8-2.6-55.5-11c-15.8-8.4-28.8-21.2-39.2-36.9s-18.1-34.5-23.2-55S0,212,0,189.5
	c0-30.2,3.1-57.1,8.6-80.6S22,65.6,31.7,49.4S53,20.9,65.6,12.6S92.2,0,106.6,0s28.1,3.8,40.6,11.7c12.5,7.8,23.7,19.7,33.1,35.7
	s17.1,36.1,22.3,60.5S210.8,161,210.8,194.2z"/>
</svg>
